HIERARCHY
ROOT pelvis
{
  OFFSET 0 100 0
  CHANNELS 6 Xposition Yposition Zposition Zrotation Xrotation Yrotation
  JOINT pelvis_right_femur
  {
    OFFSET -10.78128 -3.44521 -0.5502486
    CHANNELS 3 Zrotation Xrotation Yrotation
    JOINT right_femur_tibia
    {
      OFFSET -0.8047443 -44.0398 -0.1307829
      CHANNELS 3 Zrotation Xrotation Yrotation
      JOINT right_tibia_foot
      {
        OFFSET 3.006224 -47.83518 -5
        CHANNELS 3 Zrotation Xrotation Yrotation
        End Site
        {
          OFFSET 0 -5 15
        }
      }
    }
  }
  JOINT pelvis_left_femur
  {
    OFFSET 10.78128 -3.44521 -0.5502486
    CHANNELS 3 Zrotation Xrotation Yrotation
    JOINT left_femur_tibia
    {
      OFFSET 0.8047443 -44.0398 -0.1307829
      CHANNELS 3 Zrotation Xrotation Yrotation
      JOINT left_tibia_foot
      {
        OFFSET -4.370144 -48.10324 -4.275266
        CHANNELS 3 Zrotation Xrotation Yrotation
        End Site
        {
          OFFSET 0 -5 15
        }
      }
    }
  }
  JOINT pelvis_spine1
  {
    OFFSET 0 6.468898 -3.129235
    CHANNELS 3 Zrotation Xrotation Yrotation
    JOINT spine1
    {
      OFFSET 0 23.15396 4.99043
      CHANNELS 3 Zrotation Xrotation Yrotation
      JOINT spine2
      {
        OFFSET 0 20.79997 -5.064912
        CHANNELS 3 Zrotation Xrotation Yrotation
        JOINT neck
        {
          OFFSET 0 14.38658 9.616178
          CHANNELS 3 Zrotation Xrotation Yrotation
          End Site
          {
            OFFSET 0 20 0
          }
        }
      }
      JOINT right_manubrium
      {
        OFFSET -5.722621 16.35077 3.967754
        CHANNELS 3 Zrotation Xrotation Yrotation
        JOINT right_clavicle
        {
          OFFSET -13.16364 1.694482 -4.693211
          CHANNELS 3 Zrotation Xrotation Yrotation
          JOINT right_humerus
          {
            OFFSET -28.5034 -0.3100689 -2.792744
            CHANNELS 3 Zrotation Xrotation Yrotation
            JOINT right_radius
            {
              OFFSET -25.15693 0.02248979 -1.271978
              CHANNELS 3 Zrotation Xrotation Yrotation
              End Site
              {
                OFFSET -15 0 0
              }
            }
          }
        }
      }
      JOINT left_manubrium
      {
        OFFSET 5.722621 16.35077 3.967754
        CHANNELS 3 Zrotation Xrotation Yrotation
        JOINT left_clavicle
        {
          OFFSET 13.16364 1.694482 -4.693211
          CHANNELS 3 Zrotation Xrotation Yrotation
          JOINT left_humerus
          {
            OFFSET 29.39168 -1.063119 -2.237045
            CHANNELS 3 Zrotation Xrotation Yrotation
            JOINT left_radius
            {
              OFFSET 24.59957 -0.9528479 0.9047498
              CHANNELS 3 Zrotation Xrotation Yrotation
              End Site
              {
                OFFSET 15 -0 -0
              }
            }
          }
        }
      }
    }
  }
}
MOTION
Frames: 17
Frame Time: 0.0416666666667
133.7476 111.0557 3176.384 3.397926 -6.953137 9.432402 -0.5046059 4.282161 4.426107 -0 52.7369 -0 5.478789 1.228195 -6.055807 -5.414833 -8.107482 -8.178867 -0 21.40449 -0 -4.812637 -11.65734 16.42616 -1.036926 -0.9522204 7.264143 0.07612297 13.06084 -6.829032 -0.6088202 21.53282 5.491626 6.592797 -16.93823 1.482949 -0.9621887 -22.76016 11.67737 90.24663 27.7554 -17.20364 -0 0 19.48088 -18.75445 4.744965 2.531487 6.120759 -26.56611 -9.100623 -91.00137 6.432037 23.53248 0 0 -10.63434 15.61878 11.67724 -9.765262
135.5794 112.0424 3182.155 3.236506 -7.30062 10.67716 -0.1776942 -2.175804 3.867731 -0 53.93744 -0 4.616284 0.7118151 -7.036797 -5.639962 -3.143324 -8.431654 -0 19.53089 -0 -4.321146 -13.04488 16.0646 -1.507809 -0.7399743 6.958796 -0.03209091 12.14891 -6.928003 -0.6584185 21.66422 5.862966 7.105605 -17.08358 1.46004 -1.157339 -21.59528 11.25692 90.68409 29.67748 -17.90492 -0 0 18.43462 -18.37167 3.1123 1.369833 7.165822 -26.62701 -8.495967 -90.01335 5.986498 20.4513 0 0 -12.79395 16.7076 11.32531 -11.9586
137.2922 112.5984 3187.582 3.04657 -7.408953 11.86959 0.02653641 -8.66183 3.347423 -0 50.56226 -0 3.674376 -0.4445107 -7.773541 -5.558906 1.326374 -8.474604 -0 17.18597 -0 -3.760551 -14.39714 15.52282 -1.97769 -0.5909117 6.600539 -0.06724798 11.15382 -7.069402 -0.6931589 21.76136 6.213604 7.444229 -17.36794 1.577226 -1.424947 -20.59914 10.86876 91.2159 31.49233 -18.54697 -0 0 17.40187 -18.00911 1.619488 0.4064071 8.174224 -26.58277 -7.751813 -89.02083 5.58734 17.39591 0 0 -15.2395 17.69588 11.08495 -14.10959
138.9319 112.557 3192.904 2.941584 -7.214442 12.93863 0.03601127 -14.50677 2.746597 -0 43.38677 -0 2.954527 -1.637806 -8.30642 -5.377183 5.323621 -8.361447 -0 15.0435 -0 -3.43264 -15.76555 14.68905 -2.388171 -0.5165972 6.20732 -0.01638619 10.18182 -7.251631 -0.7047477 21.81696 6.525364 7.573381 -17.81417 1.853545 -1.761478 -19.84256 10.55586 91.84821 32.99036 -19.14816 -0 0 16.39122 -17.68393 0.4320622 -0.2889356 9.036514 -26.45625 -6.943128 -88.09263 5.295436 14.61675 0 0 -17.78058 18.5335 10.99804 -16.04627
140.5409 111.9212 3198.367 2.960114 -6.725392 13.86803 -0.1151075 -19.21018 2.03971 -0 34.13276 -0 2.597351 -2.441768 -8.687589 -5.259949 8.937933 -8.156984 -0 13.73883 -0 -3.548966 -17.10691 13.64559 -2.681871 -0.5178609 5.802858 0.118223 9.348398 -7.468313 -0.6839806 21.83493 6.781384 7.48823 -18.42764 2.285325 -2.164298 -19.35392 10.34958 92.58521 33.98616 -19.74844 -0 0 15.39437 -17.41856 -0.3247755 -0.6910234 9.663916 -26.29041 -6.1584 -87.2772 5.167607 12.3141 0 0 -20.20704 19.19822 11.0854 -17.6308
142.1496 110.845 3204.168 3.055795 -6.05696 14.66886 -0.2572949 -22.50087 1.388366 -0 24.9529 -0 2.560131 -2.649889 -8.981475 -5.255117 12.19956 -7.908277 -0 13.81002 -0 -4.121663 -18.19482 12.59957 -2.818323 -0.5856366 5.415661 0.3200305 8.750366 -7.707643 -0.6250383 21.82723 6.966508 7.214167 -19.18283 2.840292 -2.622052 -19.12301 10.26358 93.40793 34.3649 -20.37506 -0 0 14.41087 -17.23645 -0.5935888 -0.8140708 10.00674 -26.13235 -5.479815 -86.60502 5.238324 10.61552 0 0 -22.32113 19.68373 11.33828 -18.77083
143.7714 109.582 3210.419 3.127513 -5.419539 15.35145 -0.1307931 -24.3176 1.080152 -0 17.78487 -0 2.678676 -2.306257 -9.25164 -5.282416 15.01796 -7.643483 -0 15.65116 -0 -5.012584 -18.6847 11.77267 -2.783688 -0.7031432 5.075459 0.5621633 8.445647 -7.952968 -0.5282736 21.81051 7.068681 6.798021 -20.02172 3.462223 -3.112017 -19.11306 10.29274 94.26876 34.10664 -21.02094 -0 0 13.46357 -17.1566 -0.3937121 -0.6986358 10.05895 -26.01773 -4.968833 -86.09522 5.511042 9.570998 0 0 -23.96549 19.98902 11.72182 -19.42322
145.4001 108.42 3217.141 3.075482 -5.056236 15.90281 0.485724 -24.72488 1.358046 -0 13.80629 -0 2.762695 -1.688414 -9.538403 -5.191012 17.18085 -7.382685 -0 19.45385 -0 -6.036097 -18.27577 11.33348 -2.590495 -0.8495773 4.808593 0.8131215 8.448291 -8.184576 -0.4002567 21.80273 7.08027 6.294103 -20.86459 4.084146 -3.604606 -19.27736 10.41782 95.10355 33.27818 -21.64514 -0 0 12.60042 -17.19002 0.1935858 -0.395576 9.84857 -25.96232 -4.660894 -85.76129 5.961249 9.167748 0 0 -25.03777 20.11318 12.18763 -19.58867
147.0138 107.6192 3224.269 2.859997 -5.172372 16.27152 1.641917 -23.81167 2.256773 -0 13.18111 -0 2.666697 -1.219191 -9.845202 -4.852435 18.39505 -7.143381 -0 25.15238 -0 -7.021521 -16.87641 11.39478 -2.269507 -1.0044 4.634676 1.042269 8.737041 -8.381952 -0.2516335 21.8201 6.998443 5.75151 -21.62687 4.642987 -4.070826 -19.57449 10.613 95.85035 32.00148 -22.18816 -0 0 11.88662 -17.33952 1.054961 0.04732962 9.421262 -25.96234 -4.56814 -85.61416 6.546686 9.357217 0 0 -25.48886 20.05491 12.68806 -19.29944
148.5835 107.3574 3231.65 2.539341 -5.881717 16.37257 3.153345 -21.63545 3.541058 -0 15.12093 -0 2.319169 -1.318834 -10.13275 -4.246059 18.34507 -6.939084 -0 32.37388 -0 -7.823315 -14.70205 12.02923 -1.859427 -1.150928 4.565678 1.223701 9.269183 -8.525702 -0.0944349 21.87428 6.82476 5.207522 -22.23418 5.089445 -4.487729 -19.97794 10.85249 96.46147 30.41779 -22.58756 -0 0 11.39472 -17.60176 2.074851 0.5929232 8.825738 -26.00024 -4.685737 -85.66347 7.217693 10.08218 0 0 -25.31054 19.81413 13.18544 -18.60541
150.0848 107.6887 3239.06 2.26442 -7.147751 16.1288 4.637633 -18.25375 4.788917 -0 18.18152 -0 1.744661 -2.227812 -10.31131 -3.500929 16.75527 -6.775215 -0 40.38827 -0 -8.328262 -12.25249 13.23277 -1.399259 -1.278542 4.606717 1.338475 9.991455 -8.598964 0.05972592 21.96938 6.564988 4.687631 -22.63128 5.391524 -4.839216 -20.47871 11.11409 96.90409 28.66344 -22.78624 -0 0 11.1971 -17.9689 3.15537 1.21659 8.106458 -26.05154 -4.997217 -85.91804 7.922889 11.29395 0 0 -24.5226 19.39372 13.65408 -17.56361
151.511 108.5292 3246.258 2.211274 -8.703537 15.54123 5.65563 -13.83354 5.629771 -0 20.74399 -0 1.115719 -3.858515 -10.24563 -2.855199 13.45919 -6.63754 -0 48.10238 -0 -8.503458 -10.12896 14.82668 -0.9248514 -1.383647 4.756996 1.376248 10.84455 -8.588938 0.2000654 22.09841 6.230038 4.20974 -22.78575 5.533847 -5.112205 -21.08173 11.38001 97.15285 26.86147 -22.73523 -0 0 11.35993 -18.42771 4.225256 1.904427 7.303796 -26.09063 -5.476341 -86.38446 8.609499 12.95589 0 0 -23.16769 18.80108 14.07658 -16.23324
152.8821 109.6827 3253.07 2.458573 -10.0369 14.72538 5.927402 -8.753929 6.028392 -0 21.63999 -0 0.7734442 -5.79524 -9.807775 -2.498865 8.489858 -6.469762 -0 54.1862 -0 -8.47174 -8.736332 16.42347 -0.4684768 -1.469707 5.009708 1.337405 11.76292 -8.489462 0.3160072 22.23997 5.838006 3.789212 -22.68883 5.515573 -5.289826 -21.79739 11.63659 97.18098 25.12364 -22.39717 -0 0 11.93395 -18.95567 5.24187 2.649272 6.458624 -26.09562 -6.085746 -87.06238 9.22125 15.03384 0 0 -21.31638 18.05011 14.43762 -14.67515
154.2357 110.8959 3259.468 2.87904 -10.62653 13.83388 5.516233 -3.557699 6.292963 -0 20.66934 -0 1.030621 -7.575221 -8.974194 -2.3568 2.187321 -6.167005 -0 57.3349 -0 -8.495718 -8.091071 17.64195 -0.05934884 -1.54612 5.350791 1.235493 12.6748 -8.304867 0.3964649 22.35786 5.415871 3.441918 -22.35471 5.348435 -5.344689 -22.62906 11.87461 96.9559 23.55392 -21.75482 -0 0 12.93822 -19.51573 6.189338 3.445109 5.61667 -26.05319 -6.774971 -87.93554 9.698937 17.47648 0 0 -19.0784 17.16361 14.71848 -12.95316
155.5997 111.8968 3265.551 3.17557 -10.37443 12.93491 4.825753 1.310142 6.62692 -0 18.54125 -0 1.78468 -9.142763 -7.858092 -2.056842 -4.750813 -5.638883 -0 56.55615 -0 -8.742826 -7.956438 18.46813 0.2765647 -1.625037 5.757447 1.097741 13.50692 -8.053481 0.4303428 22.40759 4.998553 3.183506 -21.81809 5.055158 -5.237805 -23.55924 12.09061 96.44528 22.24567 -20.82428 -0 0 14.33823 -20.05354 7.071358 4.279314 4.828299 -25.96264 -7.481684 -88.96096 9.988565 20.19131 0 0 -16.61066 16.17602 14.89564 -11.1362
156.9859 112.4302 3271.455 3.108731 -9.668852 12.02138 4.302874 5.71227 6.799227 -0 16.23151 -0 2.514697 -10.91799 -6.589577 -1.285165 -11.4236 -4.936992 -0 51.58105 -0 -9.068132 -8.12047 19.2194 0.5184278 -1.715544 6.197927 0.9599693 14.19552 -7.767351 0.4093447 22.35226 4.623895 3.025751 -21.13009 4.66779 -4.930518 -24.53882 12.28725 95.63768 21.27103 -19.66759 -0 0 16.02782 -20.50297 7.894904 5.122281 4.142392 -25.83706 -8.139542 -90.06234 10.0575 23.02573 0 0 -14.1109 15.13746 14.9462 -9.304304
158.4182 112.3547 3277.291 2.693826 -8.871943 11.09571 4.050287 9.632135 6.552602 -0 14.49444 -0 2.885875 -13.13498 -5.233432 -0.1839468 -17.08729 -4.28616 -0 43.46831 -0 -9.20436 -8.40996 20.01837 0.6546668 -1.816688 6.634184 0.8541058 14.70021 -7.485163 0.3326366 22.18254 4.325028 2.974094 -20.35356 4.224748 -4.41062 -25.48507 12.46959 94.57219 20.66701 -18.39703 -0 0 17.82988 -20.80341 8.647584 5.917532 3.59771 -25.70111 -8.693663 -91.1361 9.910956 25.76677 0 0 -11.78987 14.11903 14.85928 -7.558499
